<svg width="29" height="25" fill="none" xmlns="http://www.w3.org/2000/svg"><path d="M26.266 1.945c-3.008-2.515-7.438-2.133-10.227.766L15 3.805 13.906 2.71C11.664.414 7.18-1.008 3.68 1.945.234 4.898.07 10.148 3.133 13.32l10.61 10.938c.327.328.765.492 1.202.492.492 0 .93-.164 1.258-.492l10.61-10.938c3.062-3.172 2.898-8.422-.547-11.375zm-.711 10.172L15 23.055 4.39 12.117c-2.077-2.187-2.515-6.289.438-8.805 3.008-2.57 6.508-.71 7.82.602L15 6.32l2.297-2.406c1.258-1.312 4.812-3.172 7.82-.602 2.953 2.516 2.516 6.618.438 8.805z" fill="#F55"/></svg>