<svg width="60" height="60" viewBox="0 0 60 60" fill="none" xmlns="http://www.w3.org/2000/svg">
<path d="M30.0002 0.833313C30.7737 0.833313 31.5156 1.1406 32.0626 1.68758C32.6095 2.23457 32.9168 2.97643 32.9168 3.74998V6.66665C32.9168 7.44019 32.6095 8.18206 32.0626 8.72904C31.5156 9.27602 30.7737 9.58331 30.0002 9.58331C29.2266 9.58331 28.4848 9.27602 27.9378 8.72904C27.3908 8.18206 27.0835 7.44019 27.0835 6.66665V3.74998C27.0835 2.97643 27.3908 2.23457 27.9378 1.68758C28.4848 1.1406 29.2266 0.833313 30.0002 0.833313ZM50.6239 9.37623C51.1707 9.92319 51.4779 10.6649 51.4779 11.4383C51.4779 12.2117 51.1707 12.9534 50.6239 13.5004L48.5618 15.5625C48.2928 15.8411 47.9709 16.0632 47.6151 16.2161C47.2592 16.369 46.8765 16.4494 46.4893 16.4528C46.102 16.4562 45.7179 16.3824 45.3595 16.2357C45.001 16.0891 44.6754 15.8725 44.4015 15.5986C44.1277 15.3248 43.9111 14.9991 43.7644 14.6407C43.6178 14.2822 43.544 13.8982 43.5473 13.5109C43.5507 13.1236 43.6312 12.7409 43.784 12.3851C43.9369 12.0292 44.1591 11.7074 44.4377 11.4383L46.4997 9.37623C47.0467 8.82944 47.7884 8.52227 48.5618 8.52227C49.3352 8.52227 50.077 8.82944 50.6239 9.37623ZM9.37641 9.37623C9.92337 8.82944 10.6651 8.52227 11.4385 8.52227C12.2119 8.52227 12.9536 8.82944 13.5006 9.37623L15.5627 11.4383C16.094 11.9884 16.3879 12.7252 16.3813 13.4899C16.3747 14.2546 16.0679 14.9862 15.5271 15.527C14.9864 16.0677 14.2548 16.3745 13.4901 16.3811C12.7253 16.3878 11.9886 16.0938 11.4385 15.5625L9.37641 13.5004C8.82962 12.9534 8.52245 12.2117 8.52245 11.4383C8.52245 10.6649 8.82962 9.92319 9.37641 9.37623ZM30.0002 18.3333C26.906 18.3333 23.9385 19.5625 21.7506 21.7504C19.5627 23.9383 18.3335 26.9058 18.3335 30C18.3335 33.0942 19.5627 36.0616 21.7506 38.2496C23.9385 40.4375 26.906 41.6666 30.0002 41.6666C33.0944 41.6666 36.0618 40.4375 38.2497 38.2496C40.4377 36.0616 41.6668 33.0942 41.6668 30C41.6668 26.9058 40.4377 23.9383 38.2497 21.7504C36.0618 19.5625 33.0944 18.3333 30.0002 18.3333ZM12.5002 30C12.5002 25.3587 14.3439 20.9075 17.6258 17.6256C20.9077 14.3437 25.3589 12.5 30.0002 12.5C34.6415 12.5 39.0926 14.3437 42.3745 17.6256C45.6564 20.9075 47.5002 25.3587 47.5002 30C47.5002 34.6413 45.6564 39.0925 42.3745 42.3744C39.0926 45.6562 34.6415 47.5 30.0002 47.5C25.3589 47.5 20.9077 45.6562 17.6258 42.3744C14.3439 39.0925 12.5002 34.6413 12.5002 30ZM0.833496 30C0.833496 29.2264 1.14079 28.4846 1.68777 27.9376C2.23475 27.3906 2.97661 27.0833 3.75016 27.0833H6.66683C7.44038 27.0833 8.18224 27.3906 8.72922 27.9376C9.27621 28.4846 9.5835 29.2264 9.5835 30C9.5835 30.7735 9.27621 31.5154 8.72922 32.0624C8.18224 32.6094 7.44038 32.9166 6.66683 32.9166H3.75016C2.97661 32.9166 2.23475 32.6094 1.68777 32.0624C1.14079 31.5154 0.833496 30.7735 0.833496 30ZM50.4168 30C50.4168 29.2264 50.7241 28.4846 51.2711 27.9376C51.8181 27.3906 52.5599 27.0833 53.3335 27.0833H56.2502C57.0237 27.0833 57.7656 27.3906 58.3126 27.9376C58.8595 28.4846 59.1668 29.2264 59.1668 30C59.1668 30.7735 58.8595 31.5154 58.3126 32.0624C57.7656 32.6094 57.0237 32.9166 56.2502 32.9166H53.3335C52.5599 32.9166 51.8181 32.6094 51.2711 32.0624C50.7241 31.5154 50.4168 30.7735 50.4168 30ZM11.4385 44.4375C11.9886 43.9062 12.7253 43.6122 13.4901 43.6189C14.2548 43.6255 14.9864 43.9322 15.5271 44.473C16.0679 45.0138 16.3747 45.7453 16.3813 46.5101C16.3879 47.2748 16.094 48.0116 15.5627 48.5616L13.5006 50.6237C12.9505 51.155 12.2137 51.449 11.449 51.4424C10.6843 51.4357 9.95272 51.129 9.41194 50.5882C8.87117 50.0474 8.56443 49.3159 8.55778 48.5512C8.55114 47.7864 8.84512 47.0497 9.37641 46.4996L11.4385 44.4375ZM44.4377 48.5616C43.9064 48.0116 43.6124 47.2748 43.619 46.5101C43.6257 45.7453 43.9324 45.0138 44.4732 44.473C45.014 43.9322 45.7455 43.6255 46.5102 43.6189C47.275 43.6122 48.0117 43.9062 48.5618 44.4375L50.6239 46.4996C51.1552 47.0497 51.4492 47.7864 51.4425 48.5512C51.4359 49.3159 51.1292 50.0474 50.5884 50.5882C50.0476 51.129 49.3161 51.4357 48.5513 51.4424C47.7866 51.449 47.0498 51.155 46.4997 50.6237L44.4377 48.5616ZM30.0002 50.4166C30.7737 50.4166 31.5156 50.7239 32.0626 51.2709C32.6095 51.8179 32.9168 52.5598 32.9168 53.3333V56.25C32.9168 57.0235 32.6095 57.7654 32.0626 58.3124C31.5156 58.8594 30.7737 59.1666 30.0002 59.1666C29.2266 59.1666 28.4848 58.8594 27.9378 58.3124C27.3908 57.7654 27.0835 57.0235 27.0835 56.25V53.3333C27.0835 52.5598 27.3908 51.8179 27.9378 51.2709C28.4848 50.7239 29.2266 50.4166 30.0002 50.4166Z" fill="white"/>
</svg>
