<svg width="70" height="70" viewBox="0 0 70 70" fill="none" xmlns="http://www.w3.org/2000/svg">
<path d="M34.9995 13.2066C31.604 10.1618 27.1539 8.56293 22.5971 8.7504C18.0402 8.93787 13.7365 10.8969 10.6025 14.2103C7.46858 17.5237 5.75197 21.9297 5.81826 26.49C5.88455 31.0502 7.7285 35.4045 10.9574 38.6254L30.8754 58.5404C31.9693 59.6339 33.4527 60.2483 34.9995 60.2483C36.5463 60.2483 38.0298 59.6339 39.1237 58.5404L59.0416 38.6254C62.2706 35.4045 64.1145 31.0502 64.1808 26.49C64.2471 21.9297 62.5305 17.5237 59.3965 14.2103C56.2626 10.8969 51.9589 8.93787 47.402 8.7504C42.8451 8.56293 38.3951 10.1618 34.9995 13.2066ZM31.5812 18.0016L32.9374 19.355C33.4844 19.9017 34.2261 20.2089 34.9995 20.2089C35.7729 20.2089 36.5147 19.9017 37.0616 19.355L38.4179 18.0016C39.4941 16.8873 40.7814 15.9985 42.2048 15.3871C43.6282 14.7757 45.1591 14.4538 46.7082 14.4404C48.2573 14.4269 49.7935 14.7221 51.2273 15.3087C52.6611 15.8953 53.9637 16.7616 55.0591 17.857C56.1546 18.9524 57.0208 20.255 57.6075 21.6888C58.1941 23.1226 58.4893 24.6589 58.4758 26.208C58.4623 27.7571 58.1405 29.288 57.5291 30.7113C56.9176 32.1347 56.0288 33.4221 54.9145 34.4983L34.9995 54.4162L15.0845 34.4983C12.9594 32.2979 11.7834 29.3509 11.81 26.2919C11.8366 23.233 13.0636 20.3068 15.2266 18.1437C17.3897 15.9806 20.3159 14.7537 23.3748 14.7271C26.4338 14.7005 29.3808 15.8764 31.5812 18.0016Z" fill="white"/>
</svg>
