<svg width="70" height="70" viewBox="0 0 70 70" fill="none" xmlns="http://www.w3.org/2000/svg">
<path d="M34.9998 11.6666C39.8065 11.6666 43.7498 15.61 43.7498 20.4166V29.1666H26.2498V20.4166C26.2498 15.61 30.1932 11.6666 34.9998 11.6666ZM49.5832 29.1666V20.4166C49.5832 12.39 43.0265 5.83331 34.9998 5.83331C26.9732 5.83331 20.4165 12.39 20.4165 20.4166V29.1666H17.4998C15.9527 29.1666 14.469 29.7812 13.375 30.8752C12.2811 31.9692 11.6665 33.4529 11.6665 35V58.3333C11.6665 59.8804 12.2811 61.3641 13.375 62.4581C14.469 63.5521 15.9527 64.1666 17.4998 64.1666H52.4998C54.0469 64.1666 55.5307 63.5521 56.6246 62.4581C57.7186 61.3641 58.3332 59.8804 58.3332 58.3333V35C58.3332 33.4529 57.7186 31.9692 56.6246 30.8752C55.5307 29.7812 54.0469 29.1666 52.4998 29.1666H49.5832ZM17.4998 35H52.4998V58.3333H17.4998V35Z" fill="white"/>
</svg>
